:FULLY-SPECIFIED
:FORCE-ALL-JOINTS-BE-3DOF
:DEGREES
747
root 3.89778 17.8496 13.9936 -135.179 -5.81057 219.115
lfemur -25.1386 -6.82221 -7.45591
ltibia 29.2073 0 0
lfoot -9.97054 -4.05395 0
ltoes 13.1835 0 0
rfemur -24.3607 -28.599 1.81666
rtibia 107.211 0 0
rfoot 18.3405 0.3791 0
rtoes 15.048 0 0
lowerback 1.09694 7.08321 0.72533
upperback -2.07667 9.4499 -1.52343
thorax -2.38435 4.68934 -2.23639
lowerneck -7.27978 -7.56856 -0.965821
upperneck -1.93587 -10.1177 3.49535
head 0.839263 -5.05164 0.928926
lclavicle -4.41957e-14 -3.23195e-14 0
lhumerus -57.3109 -13.6298 62.8563
lradius 53.0584 0 0
lwrist 20.0925 0 0
lhand -22.803 -4.01294 0
lfingers 7.12502 0 0
lthumb 3.63331 25.9346 0
rclavicle -4.41957e-14 -3.23195e-14 0
rhumerus 23.7304 22.6514 -61.3137
rradius 89.5589 0 0
rwrist -4.55389 0 0
rhand -28.6443 -28.2713 0
rfingers 7.12502 0 0
rthumb -2.00812 -778.23 0
748
root 3.82887 17.8042 14.132 -131.514 -3.29134 222.766
lfemur -25.4909 -6.21085 -7.66082
ltibia 29.8507 0 0
lfoot -10.3338 -3.30571 0
ltoes 13.2738 0 0
rfemur -24.0943 -28.4238 2.41318
rtibia 105.539 0 0
rfoot 17.239 -0.616942 0
rtoes 13.8286 0 0
lowerback 1.09841 7.01046 0.675969
upperback -2.04106 9.35216 -1.59283
thorax -2.34958 4.64191 -2.2758
lowerneck -7.22074 -7.54072 -0.957186
upperneck -1.95271 -10.0761 3.54502
head 0.825543 -5.02896 0.946728
lclavicle -4.26757e-14 -3.13401e-14 0
lhumerus -57.2645 -13.5695 63.8249
lradius 53.591 0 0
lwrist 19.8753 0 0
lhand -22.7569 -4.04534 0
lfingers 7.12502 0 0
lthumb 3.67781 25.9013 0
rclavicle -4.26757e-14 -3.13401e-14 0
rhumerus 22.082 23.4234 -62.865
rradius 89.2728 0 0
rwrist -4.23638 0 0
rhand -28.5007 -28.0237 0
rfingers 7.12502 0 0
rthumb -1.86947 -777.982 0
749
root 3.75997 17.7588 14.2704 -127.849 -0.772107 226.416
lfemur -25.8431 -5.59949 -7.86573
ltibia 30.4942 0 0
lfoot -10.697 -2.55748 0
ltoes 13.3641 0 0
rfemur -23.828 -28.2486 3.0097
rtibia 103.867 0 0
rfoot 16.1375 -1.61298 0
rtoes 12.6092 0 0
lowerback 1.09988 6.93771 0.626608
upperback -2.00545 9.25442 -1.66224
thorax -2.3148 4.59448 -2.31522
lowerneck -7.1617 -7.51289 -0.948551
upperneck -1.96955 -10.0346 3.59469
head 0.811823 -5.00628 0.96453
lclavicle -4.11557e-14 -3.03607e-14 0
lhumerus -57.2182 -13.5092 64.7935
lradius 54.1236 0 0
lwrist 19.658 0 0
lhand -22.7108 -4.07774 0
lfingers 7.12502 0 0
lthumb 3.72232 25.868 0
rclavicle -4.11557e-14 -3.03607e-14 0
rhumerus 20.4337 24.1954 -64.4163
rradius 88.9866 0 0
rwrist -3.91887 0 0
rhand -28.3571 -27.7761 0
rfingers 7.12502 0 0
rthumb -1.73082 -777.735 0
750
root 3.69107 17.7134 14.4088 -124.184 1.74712 230.067
lfemur -26.1953 -4.98813 -8.07063
ltibia 31.1376 0 0
lfoot -11.0602 -1.80925 0
ltoes 13.4544 0 0
rfemur -23.5616 -28.0734 3.60621
rtibia 102.195 0 0
rfoot 15.0361 -2.60903 0
rtoes 11.3898 0 0
lowerback 1.10136 6.86496 0.577246
upperback -1.96984 9.15668 -1.73164
thorax -2.28002 4.54705 -2.35464
lowerneck -7.10266 -7.48506 -0.939916
upperneck -1.98638 -9.99309 3.64436
head 0.798104 -4.98359 0.982332
lclavicle -3.96358e-14 -2.93813e-14 0
lhumerus -57.1718 -13.4489 65.762
lradius 54.6561 0 0
lwrist 19.4407 0 0
lhand -22.6647 -4.11014 0
lfingers 7.12502 0 0
lthumb 3.76683 25.8348 0
rclavicle -3.96358e-14 -2.93813e-14 0
rhumerus 18.7854 24.9674 -65.9676
rradius 88.7005 0 0
rwrist -3.60136 0 0
rhand -28.2136 -27.5285 0
rfingers 7.12502 0 0
rthumb -1.59217 -777.488 0
